<mxfile host="app.diagrams.net" modified="2023-02-27T01:12:39.971Z" agent="5.0 (Windows NT 10.0; Win64; x64) AppleWebKit/537.36 (KHTML, like Gecko) Chrome/110.0.0.0 Safari/537.36 Edg/110.0.1587.56" etag="X1FMZPYs4r2OA4Xz09CI" version="20.8.23" type="github">
  <diagram name="페이지-1" id="ffGm_zXGVz67d6vqP5ar">
    <mxGraphModel dx="1434" dy="759" grid="1" gridSize="10" guides="1" tooltips="1" connect="1" arrows="1" fold="1" page="1" pageScale="1" pageWidth="827" pageHeight="1169" math="0" shadow="0">
      <root>
        <mxCell id="0" />
        <mxCell id="1" parent="0" />
        <mxCell id="UMrJ9do8t8X8YAawynfj-1" value="요청/ 응답" style="rounded=1;whiteSpace=wrap;html=1;fontSize=15;fontStyle=1;fillColor=#dae8fc;strokeColor=#6c8ebf;" vertex="1" parent="1">
          <mxGeometry x="40" y="160" width="120" height="40" as="geometry" />
        </mxCell>
        <mxCell id="UMrJ9do8t8X8YAawynfj-15" value="" style="edgeStyle=orthogonalEdgeStyle;rounded=0;orthogonalLoop=1;jettySize=auto;html=1;fontSize=15;fontStyle=1;fillColor=#dae8fc;strokeColor=#000000;" edge="1" parent="1" source="UMrJ9do8t8X8YAawynfj-2" target="UMrJ9do8t8X8YAawynfj-7">
          <mxGeometry relative="1" as="geometry" />
        </mxCell>
        <mxCell id="UMrJ9do8t8X8YAawynfj-2" value="프레젠테이션 계층&lt;br style=&quot;font-size: 15px;&quot;&gt;&lt;br style=&quot;font-size: 15px;&quot;&gt;&lt;br style=&quot;font-size: 15px;&quot;&gt;&lt;br style=&quot;font-size: 15px;&quot;&gt;&lt;br style=&quot;font-size: 15px;&quot;&gt;&lt;br style=&quot;font-size: 15px;&quot;&gt;&lt;br style=&quot;font-size: 15px;&quot;&gt;&lt;br style=&quot;font-size: 15px;&quot;&gt;" style="rounded=1;whiteSpace=wrap;html=1;fontSize=15;fontStyle=1;fillColor=#e1d5e7;strokeColor=#9673a6;" vertex="1" parent="1">
          <mxGeometry x="240" y="120" width="320" height="160" as="geometry" />
        </mxCell>
        <mxCell id="UMrJ9do8t8X8YAawynfj-3" value="Controller" style="rounded=1;whiteSpace=wrap;html=1;fontSize=15;fontStyle=1;" vertex="1" parent="1">
          <mxGeometry x="340" y="220" width="120" height="40" as="geometry" />
        </mxCell>
        <mxCell id="UMrJ9do8t8X8YAawynfj-4" value="View" style="rounded=1;whiteSpace=wrap;html=1;fontSize=15;fontStyle=1;" vertex="1" parent="1">
          <mxGeometry x="270" y="160" width="120" height="40" as="geometry" />
        </mxCell>
        <mxCell id="UMrJ9do8t8X8YAawynfj-5" value="Model" style="rounded=1;whiteSpace=wrap;html=1;fontSize=15;fontStyle=1;" vertex="1" parent="1">
          <mxGeometry x="410" y="160" width="120" height="40" as="geometry" />
        </mxCell>
        <mxCell id="UMrJ9do8t8X8YAawynfj-6" value="데이터베이스" style="shape=cylinder3;whiteSpace=wrap;html=1;boundedLbl=1;backgroundOutline=1;size=15;fontSize=15;fontStyle=1;fillColor=#fff2cc;strokeColor=#d6b656;" vertex="1" parent="1">
          <mxGeometry x="340" y="480" width="120" height="80" as="geometry" />
        </mxCell>
        <mxCell id="UMrJ9do8t8X8YAawynfj-16" value="" style="edgeStyle=orthogonalEdgeStyle;rounded=0;orthogonalLoop=1;jettySize=auto;html=1;fontSize=15;fontStyle=1;fillColor=#dae8fc;strokeColor=#000000;" edge="1" parent="1" source="UMrJ9do8t8X8YAawynfj-7" target="UMrJ9do8t8X8YAawynfj-9">
          <mxGeometry relative="1" as="geometry" />
        </mxCell>
        <mxCell id="UMrJ9do8t8X8YAawynfj-7" value="서비스 계층" style="rounded=1;whiteSpace=wrap;html=1;fontSize=15;fontStyle=1;fillColor=#b1ddf0;strokeColor=#10739e;" vertex="1" parent="1">
          <mxGeometry x="240" y="320" width="320" height="40" as="geometry" />
        </mxCell>
        <mxCell id="UMrJ9do8t8X8YAawynfj-18" value="" style="edgeStyle=orthogonalEdgeStyle;rounded=0;orthogonalLoop=1;jettySize=auto;html=1;fontSize=15;fontStyle=1;fillColor=#dae8fc;strokeColor=#000000;" edge="1" parent="1" source="UMrJ9do8t8X8YAawynfj-9" target="UMrJ9do8t8X8YAawynfj-6">
          <mxGeometry relative="1" as="geometry" />
        </mxCell>
        <mxCell id="UMrJ9do8t8X8YAawynfj-9" value="퍼시스턴스 계층" style="rounded=1;whiteSpace=wrap;html=1;fontSize=15;fontStyle=1;fillColor=#b1ddf0;strokeColor=#10739e;" vertex="1" parent="1">
          <mxGeometry x="240" y="400" width="320" height="40" as="geometry" />
        </mxCell>
        <mxCell id="UMrJ9do8t8X8YAawynfj-19" value="도메인&lt;br style=&quot;font-size: 15px;&quot;&gt;객체" style="rounded=1;whiteSpace=wrap;html=1;fontSize=15;fontStyle=1;fillColor=#d5e8d4;strokeColor=#82b366;" vertex="1" parent="1">
          <mxGeometry x="640" y="120" width="80" height="320" as="geometry" />
        </mxCell>
        <mxCell id="UMrJ9do8t8X8YAawynfj-21" value="" style="endArrow=classic;startArrow=classic;html=1;rounded=0;exitX=1;exitY=0.5;exitDx=0;exitDy=0;fontSize=15;fontStyle=1;fillColor=#dae8fc;strokeColor=#000000;" edge="1" parent="1" source="UMrJ9do8t8X8YAawynfj-2" target="UMrJ9do8t8X8YAawynfj-19">
          <mxGeometry width="50" height="50" relative="1" as="geometry">
            <mxPoint x="560" y="240" as="sourcePoint" />
            <mxPoint x="610" y="190" as="targetPoint" />
          </mxGeometry>
        </mxCell>
        <mxCell id="UMrJ9do8t8X8YAawynfj-22" value="" style="endArrow=classic;startArrow=classic;html=1;rounded=0;exitX=0;exitY=0.5;exitDx=0;exitDy=0;entryX=1;entryY=0.5;entryDx=0;entryDy=0;fontSize=15;fontStyle=1;fillColor=#dae8fc;strokeColor=#000000;" edge="1" parent="1" source="UMrJ9do8t8X8YAawynfj-19" target="UMrJ9do8t8X8YAawynfj-9">
          <mxGeometry width="50" height="50" relative="1" as="geometry">
            <mxPoint x="570" y="270" as="sourcePoint" />
            <mxPoint x="620" y="420" as="targetPoint" />
          </mxGeometry>
        </mxCell>
        <mxCell id="UMrJ9do8t8X8YAawynfj-23" value="" style="endArrow=classic;startArrow=classic;html=1;rounded=0;exitX=1;exitY=0.5;exitDx=0;exitDy=0;fontSize=15;fontStyle=1;fillColor=#dae8fc;strokeColor=#000000;" edge="1" parent="1" source="UMrJ9do8t8X8YAawynfj-7">
          <mxGeometry width="50" height="50" relative="1" as="geometry">
            <mxPoint x="540" y="293.5" as="sourcePoint" />
            <mxPoint x="640" y="266.5" as="targetPoint" />
          </mxGeometry>
        </mxCell>
        <mxCell id="UMrJ9do8t8X8YAawynfj-25" value="" style="endArrow=classic;startArrow=classic;html=1;rounded=0;fontSize=15;entryX=0;entryY=0.375;entryDx=0;entryDy=0;entryPerimeter=0;" edge="1" parent="1" target="UMrJ9do8t8X8YAawynfj-2">
          <mxGeometry width="50" height="50" relative="1" as="geometry">
            <mxPoint x="160" y="180" as="sourcePoint" />
            <mxPoint x="210" y="130" as="targetPoint" />
          </mxGeometry>
        </mxCell>
      </root>
    </mxGraphModel>
  </diagram>
</mxfile>
